<svg width="1033" height="1969" viewBox="0 0 1033 1969" fill="none" xmlns="http://www.w3.org/2000/svg">
<path d="M1002.54 1939.88H30.4571C14.2557 1939.88 1 1942.4 1 1945.48V1962.28C1 1965.36 14.2557 1967.88 30.4571 1967.88H1002.54C1018.74 1967.88 1032 1965.36 1032 1962.28V1945.48C1032 1942.4 1018.74 1939.88 1002.54 1939.88Z" fill="url(#paint0_linear_1762_221)" stroke="black" stroke-width="0.75" stroke-miterlimit="10" stroke-linecap="round" stroke-linejoin="round"/>
<path d="M191.822 1.10262L191.822 1898.07L178.255 1898.07L178.255 1.10262L191.822 1.10262Z" fill="#606060" stroke="#C0C0C0" stroke-opacity="0.99"/>
<path d="M178.426 0.999953L178.426 1898.17L152.146 1898.17L152.146 0.999956L178.426 0.999953Z" fill="#B2B2B2" stroke="#C0C0C0" stroke-width="0.659414"/>
<path d="M177.092 1547.13L170.961 1547.44C168.561 1539.55 166.191 1531.48 170.961 1518.09L177.16 1518.09L177.092 1547.13Z" fill="#C0C0C0"/>
<path d="M171.388 1547.42L168.964 1547.77C168.016 1539.8 167.079 1531.66 168.964 1518.14L171.414 1518.14L171.388 1547.42Z" fill="black"/>
<path d="M177.092 1466.45L170.961 1466.75C168.561 1458.86 166.191 1450.8 170.961 1437.41L177.16 1437.41L177.092 1466.45Z" fill="#CCCCCC"/>
<path d="M171.388 1466.74L168.964 1467.08C168.016 1459.11 167.079 1450.97 168.964 1437.45L171.414 1437.45L171.388 1466.74Z" fill="black"/>
<path d="M177.092 1385.06L170.961 1385.36C168.561 1377.47 166.191 1369.41 170.961 1356.02L177.16 1356.02L177.092 1385.06Z" fill="#CCCCCC"/>
<path d="M171.388 1385.34L168.964 1385.69C168.016 1377.72 167.079 1369.58 168.964 1356.06L171.414 1356.06L171.388 1385.34Z" fill="black"/>
<path d="M177.092 1305.83L170.961 1306.13C168.561 1298.24 166.191 1290.17 170.961 1276.78L177.16 1276.78L177.092 1305.83Z" fill="#CCCCCC"/>
<path d="M171.388 1306.11L168.964 1306.46C168.016 1298.49 167.079 1290.35 168.964 1276.83L171.414 1276.83L171.388 1306.11Z" fill="black"/>
<path d="M177.092 1223.89L170.961 1224.2C168.561 1216.31 166.191 1208.24 170.961 1194.85L177.16 1194.85L177.092 1223.89Z" fill="#CCCCCC"/>
<path d="M171.388 1224.17L168.964 1224.52C168.016 1216.55 167.079 1208.41 168.964 1194.89L171.414 1194.89L171.388 1224.17Z" fill="black"/>
<path d="M177.092 1143.21L170.961 1143.51C168.561 1135.62 166.191 1127.55 170.961 1114.16L177.16 1114.16L177.092 1143.21Z" fill="#CCCCCC"/>
<path d="M171.388 1143.49L168.964 1143.83C168.016 1135.87 167.079 1127.73 168.964 1114.21L171.414 1114.21L171.388 1143.49Z" fill="black"/>
<path d="M177.092 1061.81L170.961 1062.11C168.561 1054.22 166.191 1046.16 170.961 1032.77L177.16 1032.77L177.092 1061.81Z" fill="#CCCCCC"/>
<path d="M171.388 1062.09L168.964 1062.44C168.016 1054.47 167.079 1046.33 168.964 1032.81L171.414 1032.81L171.388 1062.09Z" fill="black"/>
<path d="M177.092 982.579L170.961 982.88C168.561 974.989 166.191 966.926 170.961 953.537L177.16 953.537L177.092 982.579Z" fill="#CCCCCC"/>
<path d="M171.388 982.866L168.964 983.209C168.016 975.242 167.079 967.102 168.964 953.584L171.414 953.584L171.388 982.866Z" fill="black"/>
<path d="M177.092 902.205L170.961 902.507C168.561 894.616 166.191 886.553 170.961 873.163L177.16 873.163L177.092 902.205Z" fill="#CCCCCC"/>
<path d="M171.388 902.489L168.964 902.832C168.016 894.865 167.079 886.726 168.964 873.207L171.414 873.207L171.388 902.489Z" fill="black"/>
<path d="M177.092 820.269L170.961 820.571C168.561 812.68 166.191 804.617 170.961 791.227L177.16 791.227L177.092 820.269Z" fill="#CCCCCC"/>
<path d="M171.388 820.553L168.964 820.896C168.016 812.929 167.079 804.789 168.964 791.271L171.414 791.271L171.388 820.553Z" fill="black"/>
<path d="M177.092 739.588L170.961 739.889C168.561 731.998 166.191 723.935 170.961 710.546L177.16 710.546L177.092 739.588Z" fill="#CCCCCC"/>
<path d="M171.388 739.867L168.964 740.21C168.016 732.243 167.079 724.104 168.964 710.585L171.414 710.585L171.388 739.867Z" fill="black"/>
<path d="M177.092 658.191L170.961 658.492C168.561 650.601 166.191 642.538 170.961 629.149L177.16 629.149L177.092 658.191Z" fill="#CCCCCC"/>
<path d="M171.388 658.471L168.964 658.814C168.016 650.847 167.079 642.707 168.964 629.189L171.414 629.189L171.388 658.471Z" fill="black"/>
<path d="M177.092 578.958L170.961 579.26C168.561 571.369 166.191 563.306 170.961 549.916L177.16 549.916L177.092 578.958Z" fill="#CCCCCC"/>
<path d="M171.388 579.241L168.964 579.584C168.016 571.617 167.079 563.478 168.964 549.959L171.414 549.959L171.388 579.241Z" fill="black"/>
<path d="M177.092 494.806L170.961 495.107C168.561 487.216 166.191 479.153 170.961 465.763L177.16 465.763L177.092 494.806Z" fill="#CCCCCC"/>
<path d="M171.388 495.088L168.964 495.432C168.016 487.465 167.079 479.325 168.964 465.806L171.414 465.806L171.388 495.088Z" fill="black"/>
<path d="M177.092 413.402L170.961 413.704C168.561 405.813 166.191 397.75 170.961 384.36L177.16 384.36L177.092 413.402Z" fill="#CCCCCC"/>
<path d="M171.388 413.689L168.964 414.033C168.016 406.066 167.079 397.926 168.964 384.407L171.414 384.407L171.388 413.689Z" fill="black"/>
<path d="M177.092 334.176L170.961 334.478C168.561 326.587 166.191 318.524 170.961 305.134L177.16 305.134L177.092 334.176Z" fill="#CCCCCC"/>
<path d="M171.388 334.463L168.964 334.807C168.016 326.84 167.079 318.7 168.964 305.181L171.414 305.181L171.388 334.463Z" fill="black"/>
<path d="M177.092 91.2426L170.961 91.5439C168.561 83.6529 166.191 75.5901 170.961 62.2004L177.16 62.2004L177.092 91.2426Z" fill="#CCCCCC"/>
<path d="M171.388 91.5254L168.964 91.8687C168.016 83.9016 167.079 75.7619 168.964 62.2434L171.414 62.2434L171.388 91.5254Z" fill="black"/>
<path d="M177.285 254.264L171.154 254.565C168.755 246.674 166.384 238.611 171.154 225.221L177.354 225.221L177.285 254.264Z" fill="#CCCCCC"/>
<path d="M171.581 254.546L169.157 254.89C168.21 246.923 167.272 238.783 169.157 225.264L171.607 225.264L171.581 254.546Z" fill="black"/>
<path d="M177.369 171.122L171.238 171.423C168.839 163.532 166.468 155.469 171.238 142.08L177.437 142.08L177.369 171.122Z" fill="#CCCCCC"/>
<path d="M171.665 171.401L169.241 171.745C168.294 163.778 167.356 155.638 169.241 142.119L171.691 142.119L171.665 171.401Z" fill="black"/>
<path d="M191.865 1.20125L191.865 1898.17L205.432 1898.17L205.432 1.20125L191.865 1.20125Z" fill="#656564" stroke="#C0C0C0" stroke-opacity="0.99"/>
<path d="M205.266 1.09859L205.266 1898.27L231.546 1898.27L231.546 1.09858L205.266 1.09859Z" fill="#B2B2B2" stroke="#C0C0C0" stroke-width="0.659414"/>
<path d="M206.596 1547.25L212.727 1547.55C215.126 1539.66 217.497 1531.59 212.727 1518.21L206.527 1518.21L206.596 1547.25Z" fill="#CCCCCC"/>
<path d="M212.304 1547.53L214.727 1547.87C215.675 1539.9 216.613 1531.76 214.727 1518.25L212.277 1518.25L212.304 1547.53Z" fill="black"/>
<path d="M206.596 1466.56L212.727 1466.86C215.126 1458.97 217.497 1450.9 212.727 1437.51L206.527 1437.51L206.596 1466.56Z" fill="#CCCCCC"/>
<path d="M212.304 1466.84L214.727 1467.18C215.675 1459.21 216.613 1451.07 214.727 1437.55L212.277 1437.55L212.304 1466.84Z" fill="black"/>
<path d="M206.596 1385.15L212.727 1385.46C215.126 1377.56 217.497 1369.5 212.727 1356.11L206.527 1356.11L206.596 1385.15Z" fill="#CCCCCC"/>
<path d="M212.304 1385.44L214.727 1385.78C215.675 1377.82 216.613 1369.68 214.727 1356.16L212.277 1356.16L212.304 1385.44Z" fill="black"/>
<path d="M206.596 1305.93L212.727 1306.23C215.126 1298.34 217.497 1290.28 212.727 1276.89L206.527 1276.89L206.596 1305.93Z" fill="#CCCCCC"/>
<path d="M212.304 1306.22L214.727 1306.56C215.675 1298.59 216.613 1290.45 214.727 1276.93L212.277 1276.93L212.304 1306.22Z" fill="black"/>
<path d="M206.596 1223.99L212.727 1224.29C215.126 1216.4 217.497 1208.34 212.727 1194.95L206.527 1194.95L206.596 1223.99Z" fill="#CCCCCC"/>
<path d="M212.304 1224.28L214.727 1224.62C215.675 1216.65 216.613 1208.51 214.727 1194.99L212.277 1194.99L212.304 1224.28Z" fill="black"/>
<path d="M206.596 1143.31L212.727 1143.61C215.126 1135.72 217.497 1127.65 212.727 1114.26L206.527 1114.26L206.596 1143.31Z" fill="#CCCCCC"/>
<path d="M212.304 1143.59L214.727 1143.93C215.675 1135.97 216.613 1127.83 214.727 1114.31L212.277 1114.31L212.304 1143.59Z" fill="black"/>
<path d="M206.596 1061.92L212.727 1062.22C215.126 1054.33 217.497 1046.27 212.727 1032.88L206.527 1032.88L206.596 1061.92Z" fill="#CCCCCC"/>
<path d="M212.304 1062.2L214.727 1062.54C215.675 1054.57 216.613 1046.43 214.727 1032.92L212.277 1032.92L212.304 1062.2Z" fill="black"/>
<path d="M206.596 982.685L212.727 982.987C215.126 975.096 217.497 967.033 212.727 953.643L206.527 953.643L206.596 982.685Z" fill="#CCCCCC"/>
<path d="M212.304 982.965L214.727 983.308C215.675 975.341 216.613 967.201 214.727 953.683L212.277 953.683L212.304 982.965Z" fill="black"/>
<path d="M206.596 902.312L212.727 902.614C215.126 894.723 217.497 886.66 212.727 873.27L206.527 873.27L206.596 902.312Z" fill="#CCCCCC"/>
<path d="M212.304 902.592L214.727 902.936C215.675 894.969 216.613 886.829 214.727 873.31L212.277 873.31L212.304 902.592Z" fill="black"/>
<path d="M206.596 820.365L212.727 820.666C215.126 812.775 217.497 804.712 212.727 791.323L206.527 791.323L206.596 820.365Z" fill="#CCCCCC"/>
<path d="M212.304 820.652L214.727 820.995C215.675 813.028 216.613 804.888 214.727 791.37L212.277 791.37L212.304 820.652Z" fill="black"/>
<path d="M206.595 739.685L212.727 739.986C215.126 732.095 217.497 724.031 212.727 710.641L206.527 710.641L206.595 739.685Z" fill="#CCCCCC"/>
<path d="M212.3 739.966L214.723 740.312C215.671 732.345 216.608 724.205 214.723 710.687L212.273 710.687L212.3 739.966Z" fill="black"/>
<path d="M206.596 658.29L212.727 658.591C215.126 650.7 217.497 642.637 212.727 629.247L206.527 629.247L206.596 658.29Z" fill="#CCCCCC"/>
<path d="M212.304 658.573L214.727 658.916C215.675 650.949 216.613 642.809 214.727 629.291L212.277 629.291L212.304 658.573Z" fill="black"/>
<path d="M206.596 579.057L212.727 579.358C215.126 571.467 217.497 563.405 212.727 550.015L206.527 550.015L206.596 579.057Z" fill="#CCCCCC"/>
<path d="M212.304 579.344L214.727 579.687C215.675 571.72 216.613 563.58 214.727 550.062L212.277 550.062L212.304 579.344Z" fill="black"/>
<path d="M206.596 494.904L212.727 495.205C215.126 487.314 217.497 479.251 212.727 465.861L206.527 465.861L206.596 494.904Z" fill="#CCCCCC"/>
<path d="M212.304 495.187L214.727 495.53C215.675 487.563 216.613 479.424 214.727 465.905L212.277 465.905L212.304 495.187Z" fill="black"/>
<path d="M206.596 413.512L212.727 413.813C215.126 405.922 217.497 397.86 212.727 384.47L206.527 384.47L206.596 413.512Z" fill="#CCCCCC"/>
<path d="M212.304 413.795L214.727 414.138C215.675 406.171 216.613 398.032 214.727 384.513L212.277 384.513L212.304 413.795Z" fill="black"/>
<path d="M206.596 334.283L212.727 334.584C215.126 326.693 217.497 318.63 212.727 305.241L206.527 305.241L206.596 334.283Z" fill="#CCCCCC"/>
<path d="M212.304 334.562L214.727 334.906C215.675 326.938 216.613 318.799 214.727 305.28L212.277 305.28L212.304 334.562Z" fill="black"/>
<path d="M206.596 91.3456L212.727 91.647C215.126 83.7559 217.497 75.6931 212.727 62.3034L206.527 62.3034L206.596 91.3456Z" fill="#CCCCCC"/>
<path d="M212.304 91.6245L214.727 91.9678C215.675 84.0007 216.613 75.861 214.727 62.3425L212.277 62.3425L212.304 91.6245Z" fill="black"/>
<path d="M206.504 254.786L212.635 255.087C215.034 247.196 217.405 239.133 212.635 225.743L206.436 225.743L206.504 254.786Z" fill="#CCCCCC"/>
<path d="M212.208 255.069L214.632 255.412C215.58 247.445 216.517 239.305 214.632 225.787L212.182 225.787L212.208 255.069Z" fill="black"/>
<path d="M206.434 172.105L212.565 172.406C214.964 164.515 217.335 156.452 212.565 143.063L206.365 143.063L206.434 172.105Z" fill="#CCCCCC"/>
<path d="M212.138 172.384L214.561 172.728C215.509 164.761 216.447 156.621 214.561 143.102L212.111 143.102L212.138 172.384Z" fill="black"/>
<path d="M844.676 1.10262L844.676 1898.07L831.108 1898.07L831.108 1.10262L844.676 1.10262Z" fill="#606060" stroke="#C0C0C0" stroke-opacity="0.99"/>
<path d="M831.279 0.999953L831.279 1898.17L804.999 1898.17L804.999 0.999956L831.279 0.999953Z" fill="#B2B2B2" stroke="#C0C0C0" stroke-width="0.659414"/>
<path d="M829.945 1547.13L823.814 1547.44C821.415 1539.55 819.044 1531.48 823.814 1518.09L830.014 1518.09L829.945 1547.13Z" fill="#C0C0C0"/>
<path d="M824.241 1547.42L821.818 1547.77C820.87 1539.8 819.932 1531.66 821.818 1518.14L824.268 1518.14L824.241 1547.42Z" fill="black"/>
<path d="M829.945 1466.45L823.814 1466.75C821.415 1458.86 819.044 1450.8 823.814 1437.41L830.014 1437.41L829.945 1466.45Z" fill="#CCCCCC"/>
<path d="M824.241 1466.74L821.818 1467.08C820.87 1459.11 819.932 1450.97 821.818 1437.45L824.268 1437.45L824.241 1466.74Z" fill="black"/>
<path d="M829.945 1385.06L823.814 1385.36C821.415 1377.47 819.044 1369.41 823.814 1356.02L830.014 1356.02L829.945 1385.06Z" fill="#CCCCCC"/>
<path d="M824.241 1385.34L821.818 1385.69C820.87 1377.72 819.932 1369.58 821.818 1356.06L824.268 1356.06L824.241 1385.34Z" fill="black"/>
<path d="M829.945 1305.83L823.814 1306.13C821.415 1298.24 819.044 1290.17 823.814 1276.78L830.014 1276.78L829.945 1305.83Z" fill="#CCCCCC"/>
<path d="M824.241 1306.11L821.818 1306.46C820.87 1298.49 819.932 1290.35 821.818 1276.83L824.268 1276.83L824.241 1306.11Z" fill="black"/>
<path d="M829.945 1223.89L823.814 1224.2C821.415 1216.31 819.044 1208.24 823.814 1194.85L830.014 1194.85L829.945 1223.89Z" fill="#CCCCCC"/>
<path d="M824.241 1224.17L821.818 1224.52C820.87 1216.55 819.932 1208.41 821.818 1194.89L824.268 1194.89L824.241 1224.17Z" fill="black"/>
<path d="M829.945 1143.21L823.814 1143.51C821.415 1135.62 819.044 1127.55 823.814 1114.16L830.014 1114.16L829.945 1143.21Z" fill="#CCCCCC"/>
<path d="M824.241 1143.49L821.818 1143.83C820.87 1135.87 819.932 1127.73 821.818 1114.21L824.268 1114.21L824.241 1143.49Z" fill="black"/>
<path d="M829.945 1061.81L823.814 1062.11C821.415 1054.22 819.044 1046.16 823.814 1032.77L830.014 1032.77L829.945 1061.81Z" fill="#CCCCCC"/>
<path d="M824.241 1062.09L821.818 1062.44C820.87 1054.47 819.932 1046.33 821.818 1032.81L824.268 1032.81L824.241 1062.09Z" fill="black"/>
<path d="M829.945 982.579L823.814 982.88C821.415 974.989 819.044 966.926 823.814 953.537L830.014 953.537L829.945 982.579Z" fill="#CCCCCC"/>
<path d="M824.241 982.866L821.818 983.209C820.87 975.242 819.932 967.102 821.818 953.584L824.268 953.584L824.241 982.866Z" fill="black"/>
<path d="M829.945 902.205L823.814 902.507C821.415 894.616 819.044 886.553 823.814 873.163L830.014 873.163L829.945 902.205Z" fill="#CCCCCC"/>
<path d="M824.241 902.489L821.818 902.832C820.87 894.865 819.932 886.726 821.818 873.207L824.268 873.207L824.241 902.489Z" fill="black"/>
<path d="M829.945 820.269L823.814 820.571C821.415 812.68 819.044 804.617 823.814 791.227L830.014 791.227L829.945 820.269Z" fill="#CCCCCC"/>
<path d="M824.241 820.553L821.818 820.896C820.87 812.929 819.932 804.789 821.818 791.271L824.268 791.271L824.241 820.553Z" fill="black"/>
<path d="M829.945 739.588L823.814 739.889C821.415 731.998 819.044 723.935 823.814 710.546L830.014 710.546L829.945 739.588Z" fill="#CCCCCC"/>
<path d="M824.241 739.867L821.818 740.21C820.87 732.243 819.932 724.104 821.818 710.585L824.268 710.585L824.241 739.867Z" fill="black"/>
<path d="M829.945 658.191L823.814 658.492C821.415 650.601 819.044 642.538 823.814 629.149L830.014 629.149L829.945 658.191Z" fill="#CCCCCC"/>
<path d="M824.241 658.471L821.818 658.814C820.87 650.847 819.932 642.707 821.818 629.189L824.268 629.189L824.241 658.471Z" fill="black"/>
<path d="M829.945 578.958L823.814 579.26C821.415 571.369 819.044 563.306 823.814 549.916L830.014 549.916L829.945 578.958Z" fill="#CCCCCC"/>
<path d="M824.241 579.241L821.818 579.584C820.87 571.617 819.932 563.478 821.818 549.959L824.268 549.959L824.241 579.241Z" fill="black"/>
<path d="M829.945 494.806L823.814 495.107C821.415 487.216 819.044 479.153 823.814 465.763L830.014 465.763L829.945 494.806Z" fill="#CCCCCC"/>
<path d="M824.241 495.088L821.818 495.432C820.87 487.465 819.932 479.325 821.818 465.806L824.268 465.806L824.241 495.088Z" fill="black"/>
<path d="M829.945 413.402L823.814 413.704C821.415 405.813 819.044 397.75 823.814 384.36L830.014 384.36L829.945 413.402Z" fill="#CCCCCC"/>
<path d="M824.241 413.689L821.818 414.033C820.87 406.066 819.932 397.926 821.818 384.407L824.268 384.407L824.241 413.689Z" fill="black"/>
<path d="M829.945 334.176L823.814 334.478C821.415 326.587 819.044 318.524 823.814 305.134L830.014 305.134L829.945 334.176Z" fill="#CCCCCC"/>
<path d="M824.241 334.463L821.818 334.807C820.87 326.84 819.932 318.7 821.818 305.181L824.268 305.181L824.241 334.463Z" fill="black"/>
<path d="M829.945 91.2426L823.814 91.5439C821.415 83.6529 819.044 75.5901 823.814 62.2004L830.014 62.2004L829.945 91.2426Z" fill="#CCCCCC"/>
<path d="M824.241 91.5254L821.818 91.8687C820.87 83.9016 819.932 75.7619 821.818 62.2434L824.268 62.2434L824.241 91.5254Z" fill="black"/>
<path d="M830.138 254.264L824.008 254.565C821.608 246.674 819.238 238.611 824.008 225.221L830.207 225.221L830.138 254.264Z" fill="#CCCCCC"/>
<path d="M824.434 254.546L822.011 254.89C821.063 246.923 820.126 238.783 822.011 225.264L824.461 225.264L824.434 254.546Z" fill="black"/>
<path d="M830.222 171.122L824.092 171.423C821.692 163.532 819.322 155.469 824.092 142.08L830.291 142.08L830.222 171.122Z" fill="#CCCCCC"/>
<path d="M824.518 171.401L822.095 171.745C821.147 163.778 820.21 155.638 822.095 142.119L824.545 142.119L824.518 171.401Z" fill="black"/>
<path d="M844.719 1.20125L844.719 1898.17L858.286 1898.17L858.286 1.20125L844.719 1.20125Z" fill="#606060" stroke="#C0C0C0" stroke-opacity="0.99"/>
<path d="M858.119 1.09859L858.119 1898.27L884.399 1898.27L884.399 1.09858L858.119 1.09859Z" fill="#B2B2B2" stroke="#C0C0C0" stroke-width="0.659414"/>
<path d="M859.449 1547.25L865.58 1547.55C867.98 1539.66 870.35 1531.59 865.58 1518.21L859.381 1518.21L859.449 1547.25Z" fill="#CCCCCC"/>
<path d="M865.157 1547.53L867.581 1547.87C868.529 1539.9 869.466 1531.76 867.581 1518.25L865.131 1518.25L865.157 1547.53Z" fill="black"/>
<path d="M859.449 1466.56L865.58 1466.86C867.98 1458.97 870.35 1450.9 865.58 1437.51L859.381 1437.51L859.449 1466.56Z" fill="#CCCCCC"/>
<path d="M865.157 1466.84L867.581 1467.18C868.529 1459.21 869.466 1451.07 867.581 1437.55L865.131 1437.55L865.157 1466.84Z" fill="black"/>
<path d="M859.449 1385.15L865.58 1385.46C867.98 1377.56 870.35 1369.5 865.58 1356.11L859.381 1356.11L859.449 1385.15Z" fill="#CCCCCC"/>
<path d="M865.157 1385.44L867.581 1385.78C868.529 1377.82 869.466 1369.68 867.581 1356.16L865.131 1356.16L865.157 1385.44Z" fill="black"/>
<path d="M859.449 1305.93L865.58 1306.23C867.98 1298.34 870.35 1290.28 865.58 1276.89L859.381 1276.89L859.449 1305.93Z" fill="#CCCCCC"/>
<path d="M865.157 1306.22L867.581 1306.56C868.529 1298.59 869.466 1290.45 867.581 1276.93L865.131 1276.93L865.157 1306.22Z" fill="black"/>
<path d="M859.449 1223.99L865.58 1224.29C867.98 1216.4 870.35 1208.34 865.58 1194.95L859.381 1194.95L859.449 1223.99Z" fill="#CCCCCC"/>
<path d="M865.157 1224.28L867.581 1224.62C868.529 1216.65 869.466 1208.51 867.581 1194.99L865.131 1194.99L865.157 1224.28Z" fill="black"/>
<path d="M859.449 1143.31L865.58 1143.61C867.98 1135.72 870.35 1127.65 865.58 1114.26L859.381 1114.26L859.449 1143.31Z" fill="#CCCCCC"/>
<path d="M865.157 1143.59L867.581 1143.93C868.529 1135.97 869.466 1127.83 867.581 1114.31L865.131 1114.31L865.157 1143.59Z" fill="black"/>
<path d="M859.449 1061.92L865.58 1062.22C867.98 1054.33 870.35 1046.27 865.58 1032.88L859.381 1032.88L859.449 1061.92Z" fill="#CCCCCC"/>
<path d="M865.157 1062.2L867.581 1062.54C868.529 1054.57 869.466 1046.43 867.581 1032.92L865.131 1032.92L865.157 1062.2Z" fill="black"/>
<path d="M859.449 982.685L865.58 982.987C867.98 975.096 870.35 967.033 865.58 953.643L859.381 953.643L859.449 982.685Z" fill="#CCCCCC"/>
<path d="M865.157 982.965L867.581 983.308C868.529 975.341 869.466 967.201 867.581 953.683L865.131 953.683L865.157 982.965Z" fill="black"/>
<path d="M859.449 902.312L865.58 902.614C867.98 894.723 870.35 886.66 865.58 873.27L859.381 873.27L859.449 902.312Z" fill="#CCCCCC"/>
<path d="M865.157 902.592L867.581 902.936C868.529 894.969 869.466 886.829 867.581 873.31L865.131 873.31L865.157 902.592Z" fill="black"/>
<path d="M859.449 820.365L865.58 820.666C867.98 812.775 870.35 804.712 865.58 791.323L859.381 791.323L859.449 820.365Z" fill="#CCCCCC"/>
<path d="M865.157 820.652L867.581 820.995C868.529 813.028 869.466 804.888 867.581 791.37L865.131 791.37L865.157 820.652Z" fill="black"/>
<path d="M859.449 739.685L865.58 739.986C867.98 732.095 870.35 724.031 865.58 710.641L859.381 710.641L859.449 739.685Z" fill="#CCCCCC"/>
<path d="M865.154 739.966L867.576 740.312C868.524 732.345 869.462 724.205 867.576 710.687L865.127 710.687L865.154 739.966Z" fill="black"/>
<path d="M859.449 658.29L865.58 658.591C867.98 650.7 870.35 642.637 865.58 629.247L859.381 629.247L859.449 658.29Z" fill="#CCCCCC"/>
<path d="M865.157 658.573L867.581 658.916C868.529 650.949 869.466 642.809 867.581 629.291L865.131 629.291L865.157 658.573Z" fill="black"/>
<path d="M859.449 579.057L865.58 579.358C867.98 571.467 870.35 563.405 865.58 550.015L859.381 550.015L859.449 579.057Z" fill="#CCCCCC"/>
<path d="M865.157 579.344L867.581 579.687C868.529 571.72 869.466 563.58 867.581 550.062L865.131 550.062L865.157 579.344Z" fill="black"/>
<path d="M859.449 494.904L865.58 495.205C867.98 487.314 870.35 479.251 865.58 465.861L859.381 465.861L859.449 494.904Z" fill="#CCCCCC"/>
<path d="M865.157 495.187L867.581 495.53C868.529 487.563 869.466 479.424 867.581 465.905L865.131 465.905L865.157 495.187Z" fill="black"/>
<path d="M859.449 413.512L865.58 413.813C867.98 405.922 870.35 397.86 865.58 384.47L859.381 384.47L859.449 413.512Z" fill="#CCCCCC"/>
<path d="M865.157 413.795L867.581 414.138C868.529 406.171 869.466 398.032 867.581 384.513L865.131 384.513L865.157 413.795Z" fill="black"/>
<path d="M859.449 334.283L865.58 334.584C867.98 326.693 870.35 318.63 865.58 305.241L859.381 305.241L859.449 334.283Z" fill="#CCCCCC"/>
<path d="M865.157 334.562L867.581 334.906C868.529 326.938 869.466 318.799 867.581 305.28L865.131 305.28L865.157 334.562Z" fill="black"/>
<path d="M859.449 91.3456L865.58 91.647C867.98 83.7559 870.35 75.6931 865.58 62.3034L859.381 62.3034L859.449 91.3456Z" fill="#CCCCCC"/>
<path d="M865.157 91.6245L867.581 91.9678C868.529 84.0007 869.466 75.861 867.581 62.3425L865.131 62.3425L865.157 91.6245Z" fill="black"/>
<path d="M859.358 254.786L865.489 255.087C867.888 247.196 870.258 239.133 865.489 225.743L859.289 225.743L859.358 254.786Z" fill="#CCCCCC"/>
<path d="M865.062 255.069L867.485 255.412C868.433 247.445 869.37 239.305 867.485 225.787L865.035 225.787L865.062 255.069Z" fill="black"/>
<path d="M859.287 172.105L865.418 172.406C867.818 164.515 870.188 156.452 865.418 143.063L859.219 143.063L859.287 172.105Z" fill="#CCCCCC"/>
<path d="M864.991 172.384L867.415 172.728C868.363 164.761 869.3 156.621 867.415 143.102L864.965 143.102L864.991 172.384Z" fill="black"/>
<path d="M36.001 1845.55L999.996 1845.55L999.996 1944.78L36.001 1944.78L36.001 1845.55Z" fill="#646464" stroke="#808080" stroke-width="1.50232"/>
<defs>
<linearGradient id="paint0_linear_1762_221" x1="1" y1="1953.97" x2="1032" y2="1953.97" gradientUnits="userSpaceOnUse">
<stop stop-color="#575757"/>
<stop offset="0.1" stop-color="#8C8C91"/>
<stop offset="0.2377" stop-color="#7F7F83"/>
<stop offset="0.5197" stop-color="#69696B"/>
<stop offset="0.7811" stop-color="#5C5C5C"/>
<stop offset="1" stop-color="#575757"/>
</linearGradient>
</defs>
</svg>
