<svg width="614" height="2665" viewBox="0 0 614 2665" fill="none" xmlns="http://www.w3.org/2000/svg">
<path d="M607.15 1781H6.85C3.7 1781 1 1766.9 1 1750.45V1717.55C1 1701.1 3.7 1687 6.85 1687H607.15C610.3 1687 613 1701.1 613 1717.55V1750.45C613 1767.68 610.3 1781 607.15 1781Z" fill="url(#paint0_linear_1762_469)" stroke="#8C8C91" stroke-width="0.75" stroke-miterlimit="10" stroke-linecap="round" stroke-linejoin="round"/>
<path d="M610 1646.27H4V1671.66H610V1646.27Z" fill="url(#paint1_linear_1762_469)" stroke="#8C8C91" stroke-width="0.75" stroke-miterlimit="10" stroke-linecap="round" stroke-linejoin="round"/>
<path d="M607.15 1654.04H6.85C3.7 1654.04 1 1651.19 1 1647.85V1641.19C1 1637.86 3.7 1635 6.85 1635H607.15C610.3 1635 613 1637.86 613 1641.19V1647.85C613 1651.19 610.3 1654.04 607.15 1654.04Z" fill="url(#paint2_linear_1762_469)" stroke="#8C8C91" stroke-width="0.75" stroke-miterlimit="10" stroke-linecap="round" stroke-linejoin="round"/>
<path d="M607.15 1688H6.85C3.7 1688 1 1685.14 1 1681.81V1675.15C1 1671.81 3.7 1668.96 6.85 1668.96H607.15C610.3 1668.96 613 1671.81 613 1675.15V1681.81C613 1685.3 610.3 1688 607.15 1688Z" fill="url(#paint3_linear_1762_469)" stroke="#8C8C91" stroke-width="0.75" stroke-miterlimit="10" stroke-linecap="round" stroke-linejoin="round"/>
<path d="M8.19922 1670.23H605.799" stroke="#F2F2F2" stroke-width="0.75" stroke-miterlimit="10" stroke-linecap="round"/>
<path d="M610 1963.79H4V2033.73H610V1963.79Z" fill="url(#paint4_linear_1762_469)" stroke="#8C8C91" stroke-width="0.75" stroke-miterlimit="10" stroke-linecap="round" stroke-linejoin="round"/>
<path d="M607.15 1982.45H6.85C3.7 1982.45 1 1974.59 1 1965.41V1947.05C1 1937.87 3.7 1930 6.85 1930H607.15C610.3 1930 613 1937.87 613 1947.05V1965.41C613 1974.59 610.3 1982.45 607.15 1982.45Z" fill="url(#paint5_linear_1762_469)" stroke="#8C8C91" stroke-width="0.75" stroke-miterlimit="10" stroke-linecap="round" stroke-linejoin="round"/>
<path d="M607.15 2076H6.85C3.7 2076 1 2068.13 1 2058.95V2040.59C1 2031.41 3.7 2023.55 6.85 2023.55H607.15C610.3 2023.55 613 2031.41 613 2040.59V2058.95C613 2068.57 610.3 2076 607.15 2076Z" fill="url(#paint6_linear_1762_469)" stroke="#8C8C91" stroke-width="0.75" stroke-miterlimit="10" stroke-linecap="round" stroke-linejoin="round"/>
<path d="M8.19922 2027.04H605.799" stroke="#F2F2F2" stroke-width="0.75" stroke-miterlimit="10" stroke-linecap="round"/>
<path d="M610 2111.79H4V2181.73H610V2111.79Z" fill="url(#paint7_linear_1762_469)" stroke="#8C8C91" stroke-width="0.75" stroke-miterlimit="10" stroke-linecap="round" stroke-linejoin="round"/>
<path d="M607.15 2130.45H6.85C3.7 2130.45 1 2122.59 1 2113.41V2095.05C1 2085.87 3.7 2078 6.85 2078H607.15C610.3 2078 613 2085.87 613 2095.05V2113.41C613 2122.59 610.3 2130.45 607.15 2130.45Z" fill="url(#paint8_linear_1762_469)" stroke="#8C8C91" stroke-width="0.75" stroke-miterlimit="10" stroke-linecap="round" stroke-linejoin="round"/>
<path d="M607.15 2224H6.85C3.7 2224 1 2216.13 1 2206.95V2188.59C1 2179.41 3.7 2171.55 6.85 2171.55H607.15C610.3 2171.55 613 2179.41 613 2188.59V2206.95C613 2216.57 610.3 2224 607.15 2224Z" fill="url(#paint9_linear_1762_469)" stroke="#8C8C91" stroke-width="0.75" stroke-miterlimit="10" stroke-linecap="round" stroke-linejoin="round"/>
<path d="M8.19922 2175.04H605.799" stroke="#F2F2F2" stroke-width="0.75" stroke-miterlimit="10" stroke-linecap="round"/>
<path d="M610 2259.79H4V2329.73H610V2259.79Z" fill="url(#paint10_linear_1762_469)" stroke="#8C8C91" stroke-width="0.75" stroke-miterlimit="10" stroke-linecap="round" stroke-linejoin="round"/>
<path d="M607.15 2278.45H6.85C3.7 2278.45 1 2270.59 1 2261.41V2243.05C1 2233.87 3.7 2226 6.85 2226H607.15C610.3 2226 613 2233.87 613 2243.05V2261.41C613 2270.59 610.3 2278.45 607.15 2278.45Z" fill="url(#paint11_linear_1762_469)" stroke="#8C8C91" stroke-width="0.75" stroke-miterlimit="10" stroke-linecap="round" stroke-linejoin="round"/>
<path d="M607.15 2372H6.85C3.7 2372 1 2364.13 1 2354.95V2336.59C1 2327.41 3.7 2319.55 6.85 2319.55H607.15C610.3 2319.55 613 2327.41 613 2336.59V2354.95C613 2364.57 610.3 2372 607.15 2372Z" fill="url(#paint12_linear_1762_469)" stroke="#8C8C91" stroke-width="0.75" stroke-miterlimit="10" stroke-linecap="round" stroke-linejoin="round"/>
<path d="M8.19922 2323.04H605.799" stroke="#F2F2F2" stroke-width="0.75" stroke-miterlimit="10" stroke-linecap="round"/>
<path d="M610 2405.79H4V2475.73H610V2405.79Z" fill="url(#paint13_linear_1762_469)" stroke="#8C8C91" stroke-width="0.75" stroke-miterlimit="10" stroke-linecap="round" stroke-linejoin="round"/>
<path d="M607.15 2424.45H6.85C3.7 2424.45 1 2416.59 1 2407.41V2389.05C1 2379.87 3.7 2372 6.85 2372H607.15C610.3 2372 613 2379.87 613 2389.05V2407.41C613 2416.59 610.3 2424.45 607.15 2424.45Z" fill="url(#paint14_linear_1762_469)" stroke="#8C8C91" stroke-width="0.75" stroke-miterlimit="10" stroke-linecap="round" stroke-linejoin="round"/>
<path d="M607.15 2518H6.85C3.7 2518 1 2510.13 1 2500.95V2482.59C1 2473.41 3.7 2465.55 6.85 2465.55H607.15C610.3 2465.55 613 2473.41 613 2482.59V2500.95C613 2510.57 610.3 2518 607.15 2518Z" fill="url(#paint15_linear_1762_469)" stroke="#8C8C91" stroke-width="0.75" stroke-miterlimit="10" stroke-linecap="round" stroke-linejoin="round"/>
<path d="M8.19922 2469.04H605.799" stroke="#F2F2F2" stroke-width="0.75" stroke-miterlimit="10" stroke-linecap="round"/>
<path d="M610 2551.79H4V2621.73H610V2551.79Z" fill="url(#paint16_linear_1762_469)" stroke="#8C8C91" stroke-width="0.75" stroke-miterlimit="10" stroke-linecap="round" stroke-linejoin="round"/>
<path d="M607.15 2570.45H6.85C3.7 2570.45 1 2562.59 1 2553.41V2535.05C1 2525.87 3.7 2518 6.85 2518H607.15C610.3 2518 613 2525.87 613 2535.05V2553.41C613 2562.59 610.3 2570.45 607.15 2570.45Z" fill="url(#paint17_linear_1762_469)" stroke="#8C8C91" stroke-width="0.75" stroke-miterlimit="10" stroke-linecap="round" stroke-linejoin="round"/>
<path d="M607.15 2664H6.85C3.7 2664 1 2656.13 1 2646.95V2628.59C1 2619.41 3.7 2611.55 6.85 2611.55H607.15C610.3 2611.55 613 2619.41 613 2628.59V2646.95C613 2656.57 610.3 2664 607.15 2664Z" fill="url(#paint18_linear_1762_469)" stroke="#8C8C91" stroke-width="0.75" stroke-miterlimit="10" stroke-linecap="round" stroke-linejoin="round"/>
<path d="M8.19922 2615.04H605.799" stroke="#F2F2F2" stroke-width="0.75" stroke-miterlimit="10" stroke-linecap="round"/>
<path d="M610 1815.79H4V1885.73H610V1815.79Z" fill="url(#paint19_linear_1762_469)" stroke="#8C8C91" stroke-width="0.75" stroke-miterlimit="10" stroke-linecap="round" stroke-linejoin="round"/>
<path d="M607.15 1834.45H6.85C3.7 1834.45 1 1826.59 1 1817.41V1799.05C1 1789.87 3.7 1782 6.85 1782H607.15C610.3 1782 613 1789.87 613 1799.05V1817.41C613 1826.59 610.3 1834.45 607.15 1834.45Z" fill="url(#paint20_linear_1762_469)" stroke="#8C8C91" stroke-width="0.75" stroke-miterlimit="10" stroke-linecap="round" stroke-linejoin="round"/>
<path d="M607.15 1928H6.85C3.7 1928 1 1920.13 1 1910.95V1892.59C1 1883.41 3.7 1875.55 6.85 1875.55H607.15C610.3 1875.55 613 1883.41 613 1892.59V1910.95C613 1920.57 610.3 1928 607.15 1928Z" fill="url(#paint21_linear_1762_469)" stroke="#8C8C91" stroke-width="0.75" stroke-miterlimit="10" stroke-linecap="round" stroke-linejoin="round"/>
<path d="M8.19922 1879.04H605.799" stroke="#F2F2F2" stroke-width="0.75" stroke-miterlimit="10" stroke-linecap="round"/>
<path d="M367 1686H245V1778H367V1686Z" fill="url(#paint22_linear_1762_469)" stroke="#C0C0C0" stroke-width="0.75" stroke-miterlimit="10" stroke-linecap="round" stroke-linejoin="round"/>
<circle cx="349.5" cy="1764.5" r="5" stroke="#C0C0C0"/>
<circle cx="264.5" cy="1764.5" r="5" stroke="#C0C0C0"/>
<circle cx="349.5" cy="1702.5" r="5" stroke="#C0C0C0"/>
<circle cx="264.5" cy="1702.5" r="5" stroke="#C0C0C0"/>
<path d="M317.967 1778H296.49C291.495 1778 287 1770.66 287 1760.56V78H326.958V1760.56C327.457 1769.74 323.462 1778 317.967 1778Z" fill="url(#paint23_linear_1762_469)" stroke="#4D4D4D" stroke-width="0.75" stroke-miterlimit="10"/>
<g filter="url(#filter0_i_1762_469)">
<path d="M190.055 40.7656L190.109 58.5311L190.765 59.6278C192.078 61.7991 195.74 64.2337 200.497 66.1418C214.657 71.8443 237.127 75.6387 270.476 77.9417C289.064 79.2138 318.067 79.3673 338.951 78.2487C363.663 76.9547 385.313 74.2131 401.167 70.3748C407.646 68.7957 415.081 66.2076 418.635 64.2775C420.903 63.0274 423.473 60.9218 424.266 59.6278L424.922 58.5311L424.977 40.7656C425.031 23.1535 425.031 23 424.512 24.0528C420.111 33.0452 385.887 40.6998 338.951 43.1562C318.067 44.2748 289.064 44.1213 270.476 42.8492C249.236 41.3797 235.623 39.7347 221.327 36.9054C204.269 33.5277 192.761 28.7683 190.547 24.1186L190 23L190.055 40.7656Z" fill="url(#paint24_linear_1762_469)"/>
<path d="M190.055 40.7656L190.109 58.5311L190.765 59.6278C192.078 61.7991 195.74 64.2337 200.497 66.1418C214.657 71.8443 237.127 75.6387 270.476 77.9417C289.064 79.2138 318.067 79.3673 338.951 78.2487C363.663 76.9547 385.313 74.2131 401.167 70.3748C407.646 68.7957 415.081 66.2076 418.635 64.2775C420.903 63.0274 423.473 60.9218 424.266 59.6278L424.922 58.5311L424.977 40.7656C425.031 23.1535 425.031 23 424.512 24.0528C420.111 33.0452 385.887 40.6998 338.951 43.1562C318.067 44.2748 289.064 44.1213 270.476 42.8492C249.236 41.3797 235.623 39.7347 221.327 36.9054C204.269 33.5277 192.761 28.7683 190.547 24.1186L190 23L190.055 40.7656Z" fill="black" fill-opacity="0.2"/>
</g>
<path d="M270.493 42.5998C289.07 43.8711 318.063 44.0247 338.938 42.9066L338.938 42.9066C362.397 41.6788 382.672 39.1522 397.627 35.8115C405.106 34.141 411.246 32.2686 415.785 30.2574C418.055 29.2518 419.919 28.2141 421.348 27.1539C422.779 26.0924 423.761 25.0179 424.287 23.9429L424.288 23.9422L424.29 23.9375C424.349 23.8175 424.418 23.6776 424.488 23.5903C424.507 23.5658 424.534 23.5362 424.568 23.5103C424.601 23.4851 424.657 23.4522 424.731 23.4458C424.913 23.4304 425.004 23.5719 425.034 23.6297C425.069 23.6981 425.09 23.7829 425.106 23.8694C425.123 23.9605 425.138 24.0741 425.15 24.2116C425.176 24.4869 425.195 24.8744 425.209 25.403C425.268 27.5163 425.254 31.9634 425.227 40.7663L425.172 58.5319L425.172 58.6006L425.136 58.6595L424.48 59.7561L424.479 59.7584C424.06 60.4424 423.192 61.3139 422.163 62.1621C421.127 63.015 419.905 63.863 418.755 64.4965L418.754 64.4972C415.173 66.4422 407.714 69.0364 401.226 70.6177L401.226 70.6178C385.351 74.461 363.684 77.2039 338.965 78.4984C318.071 79.6174 289.058 79.4639 270.459 78.1911L270.459 78.1911C237.107 75.888 214.603 72.0921 200.404 66.3738C198.013 65.4147 195.892 64.3215 194.201 63.1914C192.514 62.0644 191.235 60.8884 190.551 59.7571L190.551 59.7561L189.895 58.6595L189.86 58.6006L189.859 58.5319L189.805 40.7663L189.75 23.0008L190.225 22.8902L190.771 24.0088L190.772 24.0111C191.299 25.1171 192.393 26.2561 194.034 27.3979C195.672 28.5372 197.833 29.6656 200.466 30.7581C205.732 32.9429 212.856 34.9732 221.375 36.6601C235.658 39.4867 249.26 41.1307 270.493 42.5998ZM270.493 42.5998L270.476 42.8492M270.493 42.5998C270.493 42.5998 270.493 42.5998 270.493 42.5998L270.476 42.8492M270.476 42.8492C249.236 41.3797 235.623 39.7347 221.327 36.9054C204.269 33.5277 192.761 28.7683 190.547 24.1186L424.589 23.857C424.589 23.8582 424.592 23.8655 424.597 23.8819C424.597 23.8826 424.597 23.8832 424.598 23.8839C424.571 23.9339 424.542 23.9913 424.512 24.0528C420.111 33.0452 385.887 40.6998 338.951 43.1562C318.067 44.2748 289.064 44.1213 270.476 42.8492Z" stroke="#808080" stroke-width="0.5"/>
<g filter="url(#filter1_i_1762_469)">
<path d="M291.026 1.05094C282.508 1.31223 270.079 1.94369 262.097 2.55338C228.882 5.10099 204.427 10.3922 197.329 16.5761C192.641 20.6479 195.025 24.5456 204.534 28.4214C218.302 34.0175 246.909 38.1764 282.588 39.7224C291.079 40.0925 324.642 40.0925 332.544 39.7224C368.223 38.0457 393.777 34.453 409.259 28.9005C415.955 26.5053 420 23.348 420 20.5391C419.946 14.464 404.223 8.78087 377.143 5.07921C364.392 3.31548 351.616 2.24853 332.544 1.33401C328.151 1.11626 295.981 0.898518 291.026 1.05094Z" fill="url(#paint25_linear_1762_469)"/>
<path d="M291.026 1.05094C282.508 1.31223 270.079 1.94369 262.097 2.55338C228.882 5.10099 204.427 10.3922 197.329 16.5761C192.641 20.6479 195.025 24.5456 204.534 28.4214C218.302 34.0175 246.909 38.1764 282.588 39.7224C291.079 40.0925 324.642 40.0925 332.544 39.7224C368.223 38.0457 393.777 34.453 409.259 28.9005C415.955 26.5053 420 23.348 420 20.5391C419.946 14.464 404.223 8.78087 377.143 5.07921C364.392 3.31548 351.616 2.24853 332.544 1.33401C328.151 1.11626 295.981 0.898518 291.026 1.05094Z" fill="black" fill-opacity="0.2"/>
</g>
<path d="M291.026 1.05094C282.508 1.31223 270.079 1.94369 262.097 2.55338C228.882 5.10099 204.427 10.3922 197.329 16.5761C192.641 20.6479 195.025 24.5456 204.534 28.4214C218.302 34.0175 246.909 38.1764 282.588 39.7224C291.079 40.0925 324.642 40.0925 332.544 39.7224C368.223 38.0457 393.777 34.453 409.259 28.9005C415.955 26.5053 420 23.348 420 20.5391C419.946 14.464 404.223 8.78087 377.143 5.07921C364.392 3.31548 351.616 2.24853 332.544 1.33401C328.151 1.11626 295.981 0.898518 291.026 1.05094Z" stroke="#808080" stroke-width="0.5"/>
<defs>
<filter id="filter0_i_1762_469" x="189.5" y="22.7803" width="236" height="60.7197" filterUnits="userSpaceOnUse" color-interpolation-filters="sRGB">
<feFlood flood-opacity="0" result="BackgroundImageFix"/>
<feBlend mode="normal" in="SourceGraphic" in2="BackgroundImageFix" result="shape"/>
<feColorMatrix in="SourceAlpha" type="matrix" values="0 0 0 0 0 0 0 0 0 0 0 0 0 0 0 0 0 0 127 0" result="hardAlpha"/>
<feOffset dy="4"/>
<feGaussianBlur stdDeviation="2"/>
<feComposite in2="hardAlpha" operator="arithmetic" k2="-1" k3="1"/>
<feColorMatrix type="matrix" values="0 0 0 0 0 0 0 0 0 0 0 0 0 0 0 0 0 0 0.25 0"/>
<feBlend mode="normal" in2="shape" result="effect1_innerShadow_1762_469"/>
</filter>
<filter id="filter1_i_1762_469" x="194.75" y="0.75" width="225.5" height="43.5" filterUnits="userSpaceOnUse" color-interpolation-filters="sRGB">
<feFlood flood-opacity="0" result="BackgroundImageFix"/>
<feBlend mode="normal" in="SourceGraphic" in2="BackgroundImageFix" result="shape"/>
<feColorMatrix in="SourceAlpha" type="matrix" values="0 0 0 0 0 0 0 0 0 0 0 0 0 0 0 0 0 0 127 0" result="hardAlpha"/>
<feOffset dy="4"/>
<feGaussianBlur stdDeviation="2"/>
<feComposite in2="hardAlpha" operator="arithmetic" k2="-1" k3="1"/>
<feColorMatrix type="matrix" values="0 0 0 0 0 0 0 0 0 0 0 0 0 0 0 0 0 0 0.25 0"/>
<feBlend mode="normal" in2="shape" result="effect1_innerShadow_1762_469"/>
</filter>
<linearGradient id="paint0_linear_1762_469" x1="1" y1="1734.02" x2="613" y2="1734.02" gradientUnits="userSpaceOnUse">
<stop stop-color="#B3B3B3"/>
<stop offset="0.24" stop-color="#E6E6E6"/>
<stop offset="0.42" stop-color="#E6E6E6"/>
<stop offset="0.4904" stop-color="#DBDBDB"/>
<stop offset="0.6155" stop-color="#BCBCBC"/>
<stop offset="0.7808" stop-color="#8B8B8B"/>
<stop offset="0.978" stop-color="#484848"/>
<stop offset="1" stop-color="#404040"/>
</linearGradient>
<linearGradient id="paint1_linear_1762_469" x1="4" y1="1658.89" x2="610" y2="1658.89" gradientUnits="userSpaceOnUse">
<stop stop-color="#575757"/>
<stop offset="0.42" stop-color="#AFAFAE"/>
<stop offset="1" stop-color="#575757"/>
</linearGradient>
<linearGradient id="paint2_linear_1762_469" x1="1" y1="1644.49" x2="613" y2="1644.49" gradientUnits="userSpaceOnUse">
<stop stop-color="#B3B3B3"/>
<stop offset="0.24" stop-color="#E6E6E6"/>
<stop offset="0.42" stop-color="#E6E6E6"/>
<stop offset="0.4904" stop-color="#DBDBDB"/>
<stop offset="0.6155" stop-color="#BCBCBC"/>
<stop offset="0.7808" stop-color="#8B8B8B"/>
<stop offset="0.978" stop-color="#484848"/>
<stop offset="1" stop-color="#404040"/>
</linearGradient>
<linearGradient id="paint3_linear_1762_469" x1="1" y1="1678.48" x2="613" y2="1678.48" gradientUnits="userSpaceOnUse">
<stop stop-color="#B3B3B3"/>
<stop offset="0.24" stop-color="#E6E6E6"/>
<stop offset="0.42" stop-color="#E6E6E6"/>
<stop offset="0.4904" stop-color="#DBDBDB"/>
<stop offset="0.6155" stop-color="#BCBCBC"/>
<stop offset="0.7808" stop-color="#8B8B8B"/>
<stop offset="0.978" stop-color="#484848"/>
<stop offset="1" stop-color="#404040"/>
</linearGradient>
<linearGradient id="paint4_linear_1762_469" x1="4" y1="1998.56" x2="610" y2="1998.56" gradientUnits="userSpaceOnUse">
<stop stop-color="#575757"/>
<stop offset="0.42" stop-color="#AFAFAE"/>
<stop offset="1" stop-color="#575757"/>
</linearGradient>
<linearGradient id="paint5_linear_1762_469" x1="1" y1="1956.15" x2="613" y2="1956.15" gradientUnits="userSpaceOnUse">
<stop stop-color="#B3B3B3"/>
<stop offset="0.24" stop-color="#E6E6E6"/>
<stop offset="0.42" stop-color="#E6E6E6"/>
<stop offset="0.4904" stop-color="#DBDBDB"/>
<stop offset="0.6155" stop-color="#BCBCBC"/>
<stop offset="0.7808" stop-color="#8B8B8B"/>
<stop offset="0.978" stop-color="#484848"/>
<stop offset="1" stop-color="#404040"/>
</linearGradient>
<linearGradient id="paint6_linear_1762_469" x1="1" y1="2049.79" x2="613" y2="2049.79" gradientUnits="userSpaceOnUse">
<stop stop-color="#B3B3B3"/>
<stop offset="0.24" stop-color="#E6E6E6"/>
<stop offset="0.42" stop-color="#E6E6E6"/>
<stop offset="0.4904" stop-color="#DBDBDB"/>
<stop offset="0.6155" stop-color="#BCBCBC"/>
<stop offset="0.7808" stop-color="#8B8B8B"/>
<stop offset="0.978" stop-color="#484848"/>
<stop offset="1" stop-color="#404040"/>
</linearGradient>
<linearGradient id="paint7_linear_1762_469" x1="4" y1="2146.56" x2="610" y2="2146.56" gradientUnits="userSpaceOnUse">
<stop stop-color="#575757"/>
<stop offset="0.42" stop-color="#AFAFAE"/>
<stop offset="1" stop-color="#575757"/>
</linearGradient>
<linearGradient id="paint8_linear_1762_469" x1="1" y1="2104.15" x2="613" y2="2104.15" gradientUnits="userSpaceOnUse">
<stop stop-color="#B3B3B3"/>
<stop offset="0.24" stop-color="#E6E6E6"/>
<stop offset="0.42" stop-color="#E6E6E6"/>
<stop offset="0.4904" stop-color="#DBDBDB"/>
<stop offset="0.6155" stop-color="#BCBCBC"/>
<stop offset="0.7808" stop-color="#8B8B8B"/>
<stop offset="0.978" stop-color="#484848"/>
<stop offset="1" stop-color="#404040"/>
</linearGradient>
<linearGradient id="paint9_linear_1762_469" x1="1" y1="2197.79" x2="613" y2="2197.79" gradientUnits="userSpaceOnUse">
<stop stop-color="#B3B3B3"/>
<stop offset="0.24" stop-color="#E6E6E6"/>
<stop offset="0.42" stop-color="#E6E6E6"/>
<stop offset="0.4904" stop-color="#DBDBDB"/>
<stop offset="0.6155" stop-color="#BCBCBC"/>
<stop offset="0.7808" stop-color="#8B8B8B"/>
<stop offset="0.978" stop-color="#484848"/>
<stop offset="1" stop-color="#404040"/>
</linearGradient>
<linearGradient id="paint10_linear_1762_469" x1="4" y1="2294.56" x2="610" y2="2294.56" gradientUnits="userSpaceOnUse">
<stop stop-color="#575757"/>
<stop offset="0.42" stop-color="#AFAFAE"/>
<stop offset="1" stop-color="#575757"/>
</linearGradient>
<linearGradient id="paint11_linear_1762_469" x1="1" y1="2252.15" x2="613" y2="2252.15" gradientUnits="userSpaceOnUse">
<stop stop-color="#B3B3B3"/>
<stop offset="0.24" stop-color="#E6E6E6"/>
<stop offset="0.42" stop-color="#E6E6E6"/>
<stop offset="0.4904" stop-color="#DBDBDB"/>
<stop offset="0.6155" stop-color="#BCBCBC"/>
<stop offset="0.7808" stop-color="#8B8B8B"/>
<stop offset="0.978" stop-color="#484848"/>
<stop offset="1" stop-color="#404040"/>
</linearGradient>
<linearGradient id="paint12_linear_1762_469" x1="1" y1="2345.79" x2="613" y2="2345.79" gradientUnits="userSpaceOnUse">
<stop stop-color="#B3B3B3"/>
<stop offset="0.24" stop-color="#E6E6E6"/>
<stop offset="0.42" stop-color="#E6E6E6"/>
<stop offset="0.4904" stop-color="#DBDBDB"/>
<stop offset="0.6155" stop-color="#BCBCBC"/>
<stop offset="0.7808" stop-color="#8B8B8B"/>
<stop offset="0.978" stop-color="#484848"/>
<stop offset="1" stop-color="#404040"/>
</linearGradient>
<linearGradient id="paint13_linear_1762_469" x1="4" y1="2440.56" x2="610" y2="2440.56" gradientUnits="userSpaceOnUse">
<stop stop-color="#575757"/>
<stop offset="0.42" stop-color="#AFAFAE"/>
<stop offset="1" stop-color="#575757"/>
</linearGradient>
<linearGradient id="paint14_linear_1762_469" x1="1" y1="2398.15" x2="613" y2="2398.15" gradientUnits="userSpaceOnUse">
<stop stop-color="#B3B3B3"/>
<stop offset="0.24" stop-color="#E6E6E6"/>
<stop offset="0.42" stop-color="#E6E6E6"/>
<stop offset="0.4904" stop-color="#DBDBDB"/>
<stop offset="0.6155" stop-color="#BCBCBC"/>
<stop offset="0.7808" stop-color="#8B8B8B"/>
<stop offset="0.978" stop-color="#484848"/>
<stop offset="1" stop-color="#404040"/>
</linearGradient>
<linearGradient id="paint15_linear_1762_469" x1="1" y1="2491.79" x2="613" y2="2491.79" gradientUnits="userSpaceOnUse">
<stop stop-color="#B3B3B3"/>
<stop offset="0.24" stop-color="#E6E6E6"/>
<stop offset="0.42" stop-color="#E6E6E6"/>
<stop offset="0.4904" stop-color="#DBDBDB"/>
<stop offset="0.6155" stop-color="#BCBCBC"/>
<stop offset="0.7808" stop-color="#8B8B8B"/>
<stop offset="0.978" stop-color="#484848"/>
<stop offset="1" stop-color="#404040"/>
</linearGradient>
<linearGradient id="paint16_linear_1762_469" x1="4" y1="2586.56" x2="610" y2="2586.56" gradientUnits="userSpaceOnUse">
<stop stop-color="#575757"/>
<stop offset="0.42" stop-color="#AFAFAE"/>
<stop offset="1" stop-color="#575757"/>
</linearGradient>
<linearGradient id="paint17_linear_1762_469" x1="1" y1="2544.15" x2="613" y2="2544.15" gradientUnits="userSpaceOnUse">
<stop stop-color="#B3B3B3"/>
<stop offset="0.24" stop-color="#E6E6E6"/>
<stop offset="0.42" stop-color="#E6E6E6"/>
<stop offset="0.4904" stop-color="#DBDBDB"/>
<stop offset="0.6155" stop-color="#BCBCBC"/>
<stop offset="0.7808" stop-color="#8B8B8B"/>
<stop offset="0.978" stop-color="#484848"/>
<stop offset="1" stop-color="#404040"/>
</linearGradient>
<linearGradient id="paint18_linear_1762_469" x1="1" y1="2637.79" x2="613" y2="2637.79" gradientUnits="userSpaceOnUse">
<stop stop-color="#B3B3B3"/>
<stop offset="0.24" stop-color="#E6E6E6"/>
<stop offset="0.42" stop-color="#E6E6E6"/>
<stop offset="0.4904" stop-color="#DBDBDB"/>
<stop offset="0.6155" stop-color="#BCBCBC"/>
<stop offset="0.7808" stop-color="#8B8B8B"/>
<stop offset="0.978" stop-color="#484848"/>
<stop offset="1" stop-color="#404040"/>
</linearGradient>
<linearGradient id="paint19_linear_1762_469" x1="4" y1="1850.56" x2="610" y2="1850.56" gradientUnits="userSpaceOnUse">
<stop stop-color="#575757"/>
<stop offset="0.42" stop-color="#AFAFAE"/>
<stop offset="1" stop-color="#575757"/>
</linearGradient>
<linearGradient id="paint20_linear_1762_469" x1="1" y1="1808.15" x2="613" y2="1808.15" gradientUnits="userSpaceOnUse">
<stop stop-color="#B3B3B3"/>
<stop offset="0.24" stop-color="#E6E6E6"/>
<stop offset="0.42" stop-color="#E6E6E6"/>
<stop offset="0.4904" stop-color="#DBDBDB"/>
<stop offset="0.6155" stop-color="#BCBCBC"/>
<stop offset="0.7808" stop-color="#8B8B8B"/>
<stop offset="0.978" stop-color="#484848"/>
<stop offset="1" stop-color="#404040"/>
</linearGradient>
<linearGradient id="paint21_linear_1762_469" x1="1" y1="1901.79" x2="613" y2="1901.79" gradientUnits="userSpaceOnUse">
<stop stop-color="#B3B3B3"/>
<stop offset="0.24" stop-color="#E6E6E6"/>
<stop offset="0.42" stop-color="#E6E6E6"/>
<stop offset="0.4904" stop-color="#DBDBDB"/>
<stop offset="0.6155" stop-color="#BCBCBC"/>
<stop offset="0.7808" stop-color="#8B8B8B"/>
<stop offset="0.978" stop-color="#484848"/>
<stop offset="1" stop-color="#404040"/>
</linearGradient>
<linearGradient id="paint22_linear_1762_469" x1="245" y1="1731.74" x2="367" y2="1731.74" gradientUnits="userSpaceOnUse">
<stop stop-color="#575757"/>
<stop offset="0.42" stop-color="#AFAFAE"/>
<stop offset="1" stop-color="#575757"/>
</linearGradient>
<linearGradient id="paint23_linear_1762_469" x1="287.499" y1="927.601" x2="327.457" y2="927.601" gradientUnits="userSpaceOnUse">
<stop stop-color="#333333"/>
<stop offset="0.5" stop-color="white"/>
<stop offset="1" stop-color="#333333"/>
</linearGradient>
<linearGradient id="paint24_linear_1762_469" x1="425" y1="51" x2="190" y2="51" gradientUnits="userSpaceOnUse">
<stop stop-color="#333333"/>
<stop offset="0.5" stop-color="white"/>
<stop offset="1" stop-color="#333333"/>
</linearGradient>
<linearGradient id="paint25_linear_1762_469" x1="420" y1="20.5" x2="195" y2="20.5" gradientUnits="userSpaceOnUse">
<stop stop-color="#333333"/>
<stop offset="0.5" stop-color="white"/>
<stop offset="1" stop-color="#333333"/>
</linearGradient>
</defs>
</svg>
