<svg width="26" height="152" viewBox="0 0 26 152" fill="none" xmlns="http://www.w3.org/2000/svg">
<path fill-rule="evenodd" clip-rule="evenodd" d="M1 1H25V141.661L3.6575 151.143H1V1Z" fill="url(#paint0_linear_1727_731)" stroke="black" stroke-miterlimit="22.9256"/>
<path fill-rule="evenodd" clip-rule="evenodd" d="M4.90576 1.14099H8.92975V148.871L4.90576 150.647V1.14099Z" fill="url(#paint1_linear_1727_731)" stroke="black" stroke-width="0.767065" stroke-miterlimit="22.9256"/>
<path fill-rule="evenodd" clip-rule="evenodd" d="M19.8181 1.14099H23.8421V142.327L19.8181 144.024V1.14099Z" fill="url(#paint2_linear_1727_731)" stroke="black" stroke-width="0.767065" stroke-miterlimit="22.9256"/>
<path d="M3.6575 1H1V151.143H3.6575V1Z" fill="url(#paint3_linear_1727_731)" stroke="black" stroke-width="0.767065" stroke-miterlimit="22.9256"/>
<path d="M4.30264 45.2727H2.302L18.7644 25.249H20.765L4.30264 45.2727Z" fill="url(#paint4_linear_1727_731)" stroke="black" stroke-width="0.5"/>
<path d="M4.35393 81.231H2.302L19.1865 64.8737H21.2384L4.35393 81.231Z" fill="url(#paint5_linear_1727_731)" stroke="black" stroke-width="0.5"/>
<path d="M4.41806 127.201H2.302L19.7141 107.459H21.8302L4.41806 127.201Z" fill="url(#paint6_linear_1727_731)" stroke="black" stroke-width="0.5"/>
<path d="M4.41806 127.201H2.302L19.7141 107.459H21.8302L4.41806 127.201Z" fill="url(#paint7_linear_1727_731)" stroke="black" stroke-width="0.5"/>
<path d="M4.31247 138.341H2.18359L19.7012 129.175H21.8301L4.31247 138.341Z" fill="url(#paint8_linear_1727_731)" stroke="black" stroke-width="0.5"/>
<path d="M18.8186 22.7112L2.302 10.1611H4.47085L20.765 22.7112H18.8186Z" fill="url(#paint9_linear_1727_731)" stroke="black" stroke-width="0.5"/>
<path d="M19.2421 62.6175L2.302 47.3882H4.52646L21.2384 62.6175H19.2421Z" fill="url(#paint10_linear_1727_731)" stroke="black" stroke-width="0.5"/>
<path d="M19.2421 104.921L2.302 83.2051H4.52646L21.2384 104.921H19.2421Z" fill="url(#paint11_linear_1727_731)" stroke="black" stroke-width="0.5"/>
<path d="M2.18359 8.59916C2.18359 7.94834 2.70061 7.62292 3.73463 7.62292H20.2791C21.3131 7.62292 21.8301 7.94834 21.8301 8.59916V10.1611H2.18359V8.59916Z" fill="url(#paint12_linear_1727_731)" stroke="black" stroke-width="0.5"/>
<path d="M2.18359 23.6872C2.18359 23.0363 2.70061 22.7109 3.73463 22.7109H20.2791C21.3131 22.7109 21.8301 23.0363 21.8301 23.6872V25.2492H2.18359V23.6872Z" fill="url(#paint13_linear_1727_731)" stroke="black" stroke-width="0.5"/>
<path d="M2.18359 45.8262C2.18359 45.1754 2.70061 44.85 3.73463 44.85H20.2791C21.3131 44.85 21.8301 45.1754 21.8301 45.8262V47.3882H2.18359V45.8262Z" fill="url(#paint14_linear_1727_731)" stroke="black" stroke-width="0.5"/>
<path d="M2.18359 63.3117C2.18359 62.6609 2.70061 62.3354 3.73463 62.3354H20.2791C21.3131 62.3354 21.8301 62.6609 21.8301 63.3117V64.8737H2.18359V63.3117Z" fill="url(#paint15_linear_1727_731)" stroke="black" stroke-width="0.5"/>
<path d="M2.18359 81.7842C2.18359 81.1334 2.70061 80.808 3.73463 80.808H20.2791C21.3131 80.808 21.8301 81.1334 21.8301 81.7842V83.3462H2.18359V81.7842Z" fill="url(#paint16_linear_1727_731)" stroke="black" stroke-width="0.5"/>
<path d="M2.18359 105.897C2.18359 105.246 2.70061 104.921 3.73463 104.921H20.2791C21.3131 104.921 21.8301 105.246 21.8301 105.897V107.459H2.18359V105.897Z" fill="url(#paint17_linear_1727_731)" stroke="black" stroke-width="0.5"/>
<path d="M2.18359 127.754C2.18359 127.103 2.70061 126.778 3.73463 126.778H20.2791C21.3131 126.778 21.8301 127.103 21.8301 127.754V129.316H2.18359V127.754Z" fill="url(#paint18_linear_1727_731)" stroke="black" stroke-width="0.5"/>
<path d="M2.18359 138.753C2.18359 138.102 2.70061 137.777 3.73463 137.777H20.2791C21.3131 137.777 21.8301 138.102 21.8301 138.753V140.315H2.18359V138.753Z" fill="url(#paint19_linear_1727_731)" stroke="black" stroke-width="0.5"/>
<defs>
<linearGradient id="paint0_linear_1727_731" x1="13" y1="1" x2="13" y2="151.143" gradientUnits="userSpaceOnUse">
<stop stop-color="#9C9C9C"/>
<stop offset="1" stop-color="#747575"/>
</linearGradient>
<linearGradient id="paint1_linear_1727_731" x1="8.92975" y1="75.8938" x2="4.90576" y2="75.8938" gradientUnits="userSpaceOnUse">
<stop offset="0.1" stop-color="#2B252C"/>
<stop offset="1" stop-color="white"/>
</linearGradient>
<linearGradient id="paint2_linear_1727_731" x1="23.8421" y1="72.5824" x2="19.8181" y2="72.5824" gradientUnits="userSpaceOnUse">
<stop offset="0.1" stop-color="#2B252C"/>
<stop offset="1" stop-color="white"/>
</linearGradient>
<linearGradient id="paint3_linear_1727_731" x1="1" y1="76.0714" x2="3.6575" y2="76.0714" gradientUnits="userSpaceOnUse">
<stop/>
<stop offset="1" stop-color="white"/>
</linearGradient>
<linearGradient id="paint4_linear_1727_731" x1="11.5335" y1="25.249" x2="11.5335" y2="45.2727" gradientUnits="userSpaceOnUse">
<stop stop-color="#D9D9D9"/>
<stop offset="0.9" stop-color="#393339"/>
</linearGradient>
<linearGradient id="paint5_linear_1727_731" x1="11.7702" y1="64.8737" x2="11.7702" y2="81.231" gradientUnits="userSpaceOnUse">
<stop stop-color="#D9D9D9"/>
<stop offset="0.9" stop-color="#393339"/>
</linearGradient>
<linearGradient id="paint6_linear_1727_731" x1="12.0661" y1="107.459" x2="12.0661" y2="127.201" gradientUnits="userSpaceOnUse">
<stop stop-color="#D9D9D9"/>
<stop offset="0.9" stop-color="#393339"/>
</linearGradient>
<linearGradient id="paint7_linear_1727_731" x1="12.0661" y1="107.459" x2="12.0661" y2="127.201" gradientUnits="userSpaceOnUse">
<stop stop-color="#D9D9D9"/>
<stop offset="0.9" stop-color="#393339"/>
</linearGradient>
<linearGradient id="paint8_linear_1727_731" x1="12.0068" y1="129.175" x2="12.0068" y2="138.341" gradientUnits="userSpaceOnUse">
<stop stop-color="#D9D9D9"/>
<stop offset="0.9" stop-color="#393339"/>
</linearGradient>
<linearGradient id="paint9_linear_1727_731" x1="20.765" y1="16.4362" x2="2.302" y2="16.4362" gradientUnits="userSpaceOnUse">
<stop stop-color="white"/>
<stop offset="0.9" stop-color="#393339"/>
</linearGradient>
<linearGradient id="paint10_linear_1727_731" x1="21.2384" y1="55.0028" x2="2.302" y2="55.0028" gradientUnits="userSpaceOnUse">
<stop stop-color="white"/>
<stop offset="0.9" stop-color="#393339"/>
</linearGradient>
<linearGradient id="paint11_linear_1727_731" x1="21.2384" y1="94.063" x2="2.302" y2="94.063" gradientUnits="userSpaceOnUse">
<stop stop-color="white"/>
<stop offset="0.9" stop-color="#393339"/>
</linearGradient>
<linearGradient id="paint12_linear_1727_731" x1="12.0068" y1="7.62292" x2="12.0068" y2="10.1611" gradientUnits="userSpaceOnUse">
<stop stop-color="white"/>
<stop offset="0.925" stop-color="#302A31"/>
</linearGradient>
<linearGradient id="paint13_linear_1727_731" x1="12.0068" y1="22.7109" x2="12.0068" y2="25.2492" gradientUnits="userSpaceOnUse">
<stop stop-color="white"/>
<stop offset="0.93" stop-color="#302A31"/>
</linearGradient>
<linearGradient id="paint14_linear_1727_731" x1="12.0068" y1="44.85" x2="12.0068" y2="47.3882" gradientUnits="userSpaceOnUse">
<stop stop-color="white"/>
<stop offset="0.93" stop-color="#302A31"/>
</linearGradient>
<linearGradient id="paint15_linear_1727_731" x1="12.0068" y1="62.3354" x2="12.0068" y2="64.8737" gradientUnits="userSpaceOnUse">
<stop stop-color="white"/>
<stop offset="0.93" stop-color="#302A31"/>
</linearGradient>
<linearGradient id="paint16_linear_1727_731" x1="12.0068" y1="80.808" x2="12.0068" y2="83.3462" gradientUnits="userSpaceOnUse">
<stop stop-color="white"/>
<stop offset="0.93" stop-color="#302A31"/>
</linearGradient>
<linearGradient id="paint17_linear_1727_731" x1="12.0068" y1="104.921" x2="12.0068" y2="107.459" gradientUnits="userSpaceOnUse">
<stop stop-color="white"/>
<stop offset="0.93" stop-color="#302A31"/>
</linearGradient>
<linearGradient id="paint18_linear_1727_731" x1="12.0068" y1="126.778" x2="12.0068" y2="129.316" gradientUnits="userSpaceOnUse">
<stop stop-color="white"/>
<stop offset="0.93" stop-color="#302A31"/>
</linearGradient>
<linearGradient id="paint19_linear_1727_731" x1="12.0068" y1="137.777" x2="12.0068" y2="140.315" gradientUnits="userSpaceOnUse">
<stop stop-color="white"/>
<stop offset="0.93" stop-color="#302A31"/>
</linearGradient>
</defs>
</svg>
