<svg width="435" height="438" viewBox="0 0 435 438" fill="none" xmlns="http://www.w3.org/2000/svg">
<rect x="1" y="1" width="433" height="436" fill="#595959" stroke="#D8D9D9" stroke-width="2"/>
<rect x="1" y="29" width="433" height="407" fill="#7F7F7F"/>
<path d="M1 76V53H64.1241H75.0795H138.204H149.681H209.675H218.022H225.847H286.363H296.796H359.399H371.398H434V76H371.398H359.399H296.796H286.363H225.847H218.022H209.675H149.681H138.204H75.0795H64.1241H1Z" fill="#595959"/>
<path d="M64.1241 76H1V53H64.1241M64.1241 76V53M64.1241 76H75.0795M64.1241 53H75.0795M75.0795 53V76M75.0795 53H138.204M75.0795 76H138.204M138.204 76V53M138.204 76H149.681M138.204 53H149.681M149.681 53V76M149.681 53H209.675M149.681 76H209.675M209.675 76V53M209.675 76H218.022M209.675 53H218.022M218.022 53H225.847M218.022 53V76M225.847 53V76M225.847 53H286.363M225.847 76H286.363M225.847 76H218.022M286.363 76V53M286.363 76H296.796M286.363 53H296.796M296.796 53V76M296.796 53H359.399M296.796 76H359.399M359.399 76V53M359.399 76H371.398M359.399 53H371.398M371.398 53V76M371.398 53H434V76H371.398" stroke="#D6D7D7"/>
<path d="M1 192V121H64.1241H75.0795H138.204H149.681H209.675H218.022H225.847H286.363H296.796H359.399H371.398H434V192H371.398H359.399H296.796H286.363H225.847H218.022H209.675H149.681H138.204H75.0795H64.1241H1Z" fill="#595959"/>
<path d="M64.1241 192H1V121H64.1241M64.1241 192V121M64.1241 192H75.0795M64.1241 121H75.0795M75.0795 121V192M75.0795 121H138.204M75.0795 192H138.204M138.204 192V121M138.204 192H149.681M138.204 121H149.681M149.681 121V192M149.681 121H209.675M149.681 192H209.675M209.675 192V121M209.675 192H218.022M209.675 121H218.022M218.022 121H225.847M218.022 121V192M225.847 121V192M225.847 121H286.363M225.847 192H286.363M225.847 192H218.022M286.363 192V121M286.363 192H296.796M286.363 121H296.796M296.796 121V192M296.796 121H359.399M296.796 192H359.399M359.399 192V121M359.399 192H371.398M359.399 121H371.398M371.398 121V192M371.398 121H434V192H371.398" stroke="#D6D7D7"/>
<path d="M1 308V237H64.1241H75.0795H138.204H149.681H209.675H218.022H225.847H286.363H296.796H359.399H371.398H434V308H371.398H359.399H296.796H286.363H225.847H218.022H209.675H149.681H138.204H75.0795H64.1241H1Z" fill="#595959"/>
<path d="M64.1241 308H1V237H64.1241M64.1241 308V237M64.1241 308H75.0795M64.1241 237H75.0795M75.0795 237V308M75.0795 237H138.204M75.0795 308H138.204M138.204 308V237M138.204 308H149.681M138.204 237H149.681M149.681 237V308M149.681 237H209.675M149.681 308H209.675M209.675 308V237M209.675 308H218.022M209.675 237H218.022M218.022 237H225.847M218.022 237V308M225.847 237V308M225.847 237H286.363M225.847 308H286.363M225.847 308H218.022M286.363 308V237M286.363 308H296.796M286.363 237H296.796M296.796 237V308M296.796 237H359.399M296.796 308H359.399M359.399 308V237M359.399 308H371.398M359.399 237H371.398M371.398 237V308M371.398 237H434V308H371.398" stroke="#D6D7D7"/>
<path d="M1 409V353H64.1241H75.0795H138.204H149.681H209.675H218.022H225.847H286.363H296.796H359.399H371.398H434V409H371.398H359.399H296.796H286.363H225.847H218.022H209.675H149.681H138.204H75.0795H64.1241H1Z" fill="#595959"/>
<path d="M64.1241 409H1V353H64.1241M64.1241 409V353M64.1241 409H75.0795M64.1241 353H75.0795M75.0795 353V409M75.0795 353H138.204M75.0795 409H138.204M138.204 409V353M138.204 409H149.681M138.204 353H149.681M149.681 353V409M149.681 353H209.675M149.681 409H209.675M209.675 409V353M209.675 409H218.022M209.675 353H218.022M218.022 353H225.847M218.022 353V409M225.847 353V409M225.847 353H286.363M225.847 409H286.363M225.847 409H218.022M286.363 409V353M286.363 409H296.796M286.363 353H296.796M296.796 353V409M296.796 353H359.399M296.796 409H359.399M359.399 409V353M359.399 409H371.398M359.399 353H371.398M371.398 353V409M371.398 353H434V409H371.398" stroke="#D6D7D7"/>
<path d="M1 29H434V41M1 29V41H434M1 29V53H434V41" stroke="#D7D8D8"/>
<path d="M1 192H434V214.5M1 192V214.5H434M1 192V237H434V214.5" stroke="#D7D8D8"/>
<path d="M1 409H434V423M1 409V423H434M1 409V437H434V423" stroke="#D7D8D8"/>
<path d="M197.559 106V104.291L199.072 103.998V94.3008H196.406V92.2891L201.924 91.7812V103.998L203.438 104.291V106H197.559ZM209.844 106.205C208.848 106.205 207.969 105.977 207.207 105.521C206.445 105.059 205.846 104.398 205.41 103.539C204.98 102.673 204.766 101.641 204.766 100.443V97.6699C204.766 96.4264 205.01 95.349 205.498 94.4375C205.993 93.526 206.67 92.8229 207.529 92.3281C208.389 91.8268 209.368 91.5762 210.469 91.5762C211.003 91.5762 211.494 91.6283 211.943 91.7324C212.399 91.8301 212.855 91.9766 213.311 92.1719L212.803 94.2617C212.38 94.1185 212.005 94.0078 211.68 93.9297C211.354 93.8516 210.999 93.8125 210.615 93.8125C209.977 93.8125 209.434 93.959 208.984 94.252C208.535 94.5384 208.197 94.9518 207.969 95.4922C207.741 96.0326 207.637 96.6771 207.656 97.4258L207.686 97.5234C208.018 97.1914 208.428 96.931 208.916 96.7422C209.404 96.5534 209.951 96.459 210.557 96.459C211.403 96.459 212.132 96.6641 212.744 97.0742C213.356 97.4844 213.825 98.041 214.15 98.7441C214.476 99.4473 214.639 100.248 214.639 101.146C214.639 102.136 214.434 103.012 214.023 103.773C213.62 104.535 213.057 105.131 212.334 105.561C211.618 105.99 210.788 106.205 209.844 106.205ZM209.785 104.018C210.195 104.018 210.55 103.894 210.85 103.646C211.149 103.399 211.38 103.064 211.543 102.641C211.706 102.211 211.787 101.732 211.787 101.205C211.787 100.45 211.598 99.8314 211.221 99.3496C210.85 98.8613 210.319 98.6172 209.629 98.6172C209.349 98.6172 209.079 98.653 208.818 98.7246C208.564 98.7962 208.333 98.9036 208.125 99.0469C207.923 99.1836 207.751 99.3561 207.607 99.5645V100.512C207.607 101.26 207.699 101.895 207.881 102.416C208.07 102.937 208.327 103.334 208.652 103.607C208.978 103.881 209.355 104.018 209.785 104.018ZM221.104 106.205C219.587 106.205 218.385 105.72 217.5 104.75C216.615 103.773 216.172 102.344 216.172 100.463V97.3281C216.172 95.4531 216.611 94.0273 217.49 93.0508C218.369 92.0677 219.567 91.5762 221.084 91.5762C222.594 91.5762 223.792 92.0677 224.678 93.0508C225.57 94.0273 226.016 95.4531 226.016 97.3281V100.463C226.016 102.344 225.573 103.773 224.688 104.75C223.809 105.72 222.614 106.205 221.104 106.205ZM221.104 104.018C221.774 104.018 222.285 103.757 222.637 103.236C222.988 102.715 223.164 101.882 223.164 100.736V97.0352C223.164 95.9023 222.985 95.0755 222.627 94.5547C222.275 94.0339 221.761 93.7734 221.084 93.7734C220.407 93.7734 219.893 94.0339 219.541 94.5547C219.189 95.0755 219.014 95.9023 219.014 97.0352V100.736C219.014 101.882 219.189 102.715 219.541 103.236C219.899 103.757 220.42 104.018 221.104 104.018ZM236.631 106.205C235.648 106.205 234.889 105.935 234.355 105.395C233.828 104.854 233.564 103.998 233.564 102.826V97.4355H232.109V95.4336H233.564V92.8457H236.406V95.4336H238.35V97.4355H236.406V102.816C236.406 103.227 236.491 103.52 236.66 103.695C236.836 103.871 237.074 103.959 237.373 103.959C237.536 103.959 237.705 103.949 237.881 103.93C238.063 103.904 238.219 103.878 238.35 103.852L238.594 105.912C238.301 105.997 237.982 106.065 237.637 106.117C237.298 106.176 236.963 106.205 236.631 106.205Z" fill="white"/>
</svg>
