<svg width="85" height="181" viewBox="0 0 85 181" fill="none" xmlns="http://www.w3.org/2000/svg">
<path fill-rule="evenodd" clip-rule="evenodd" d="M1 1H84V169.609H59.4748C58.6258 169.609 57.9742 169.57 57.3746 170.032C56.7751 170.494 56.928 170.916 56.928 171.57V177.523C56.928 178.345 57.1669 178.957 56.1239 179.535C55.081 180.112 53.9576 179.989 52.4724 179.989H1V1.00006V1Z" fill="url(#paint0_linear_813_2711)" stroke="black" stroke-miterlimit="22.9256"/>
<path fill-rule="evenodd" clip-rule="evenodd" d="M5.91406 9.30249H79.8456V169.56L58.9771 169.482C58.1074 169.482 57.6121 169.483 56.9976 169.944C56.383 170.406 56.818 170.804 56.818 171.457V176.708L5.91406 176.609V9.30249Z" fill="url(#paint1_linear_813_2711)" stroke="black" stroke-miterlimit="22.9256"/>
<path d="M12.9029 22.587H19.9832M13.7833 28.1336H19.1029M16.443 20.5818C19.4459 20.5818 21.8802 22.5737 21.8802 25.0307C21.8802 27.4878 19.4459 29.4796 16.443 29.4796C13.4402 29.4796 11.0059 27.4878 11.0059 25.0307C11.0059 22.5737 13.4401 20.5818 16.443 20.5818ZM16.443 21.241C19.0009 21.241 21.0746 22.9378 21.0746 25.0308C21.0746 27.1239 19.0009 28.8206 16.443 28.8206C13.8852 28.8206 11.8115 27.1239 11.8115 25.0308C11.8115 22.9378 13.8852 21.241 16.443 21.241Z" stroke="black" stroke-width="0.94499" stroke-miterlimit="22.9256"/>
<path d="M31.107 22.587H38.1873M31.9874 28.1336H37.307M34.6471 20.5818C37.65 20.5818 40.0843 22.5737 40.0843 25.0307C40.0843 27.4878 37.6501 29.4796 34.6471 29.4796C31.6443 29.4796 29.21 27.4878 29.21 25.0307C29.21 22.5737 31.6442 20.5818 34.6471 20.5818ZM34.6471 21.241C37.205 21.241 39.2787 22.9378 39.2787 25.0308C39.2787 27.1239 37.205 28.8206 34.6471 28.8206C32.0893 28.8206 30.0156 27.1239 30.0156 25.0308C30.0156 22.9378 32.0893 21.241 34.6471 21.241Z" stroke="black" stroke-width="0.94499" stroke-miterlimit="22.9256"/>
<path d="M65.3248 28.3832H72.4051M66.2051 33.9298H71.5248M68.8649 26.3779C71.8677 26.3779 74.3021 28.3698 74.3021 30.8269C74.3021 33.284 71.8678 35.2758 68.8649 35.2758C65.8621 35.2758 63.4277 33.2839 63.4277 30.8269C63.4277 28.3698 65.862 26.3779 68.8649 26.3779ZM68.8649 27.0372C71.4228 27.0372 73.4965 28.7339 73.4965 30.827C73.4965 32.92 71.4228 34.6167 68.8649 34.6167C66.307 34.6167 64.2334 32.92 64.2334 30.827C64.2334 28.7339 66.307 27.0372 68.8649 27.0372Z" stroke="black" stroke-width="0.94499" stroke-miterlimit="22.9256"/>
<path d="M48.2833 28.3832H55.3636M49.1636 33.9298H54.4833M51.8234 26.3779C54.8262 26.3779 57.2606 28.3698 57.2606 30.8269C57.2606 33.284 54.8263 35.2758 51.8234 35.2758C48.8206 35.2758 46.3862 33.2839 46.3862 30.8269C46.3862 28.3698 48.8205 26.3779 51.8234 26.3779ZM51.8234 27.0372C54.3813 27.0372 56.455 28.7339 56.455 30.827C56.455 32.92 54.3813 34.6167 51.8234 34.6167C49.2655 34.6167 47.1919 32.92 47.1919 30.827C47.1919 28.7339 49.2655 27.0372 51.8234 27.0372Z" stroke="black" stroke-width="0.94499" stroke-miterlimit="22.9256"/>
<path d="M12.7247 42.6385H19.805M13.605 48.1852H18.9247M16.2648 40.6333C19.2676 40.6333 21.702 42.6252 21.702 45.0823C21.702 47.5394 19.2677 49.5312 16.2648 49.5312C13.262 49.5312 10.8276 47.5393 10.8276 45.0823C10.8276 42.6252 13.2619 40.6333 16.2648 40.6333ZM16.2648 41.2925C18.8227 41.2925 20.8964 42.9893 20.8964 45.0823C20.8964 47.1754 18.8227 48.8721 16.2648 48.8721C13.7069 48.8721 11.6333 47.1754 11.6333 45.0823C11.6333 42.9893 13.7069 41.2925 16.2648 41.2925Z" stroke="black" stroke-width="0.94499" stroke-miterlimit="22.9256"/>
<path d="M30.6583 42.6385H37.7386M31.5386 48.1852H36.8583M34.1984 40.6333C37.2012 40.6333 39.6356 42.6252 39.6356 45.0823C39.6356 47.5394 37.2013 49.5312 34.1984 49.5312C31.1956 49.5312 28.7612 47.5393 28.7612 45.0823C28.7612 42.6252 31.1955 40.6333 34.1984 40.6333ZM34.1984 41.2925C36.7563 41.2925 38.83 42.9893 38.83 45.0823C38.83 47.1754 36.7563 48.8721 34.1984 48.8721C31.6405 48.8721 29.5669 47.1754 29.5669 45.0823C29.5669 42.9893 31.6405 41.2925 34.1984 41.2925Z" stroke="black" stroke-width="0.94499" stroke-miterlimit="22.9256"/>
<path d="M48.1495 42.6385H55.2298M49.0299 48.1852H54.3495M51.6896 40.6333C54.6924 40.6333 57.1268 42.6252 57.1268 45.0823C57.1268 47.5394 54.6925 49.5312 51.6896 49.5312C48.6868 49.5312 46.2524 47.5393 46.2524 45.0823C46.2524 42.6252 48.6867 40.6333 51.6896 40.6333ZM51.6896 41.2925C54.2475 41.2925 56.3212 42.9893 56.3212 45.0823C56.3212 47.1754 54.2475 48.8721 51.6896 48.8721C49.1317 48.8721 47.0581 47.1754 47.0581 45.0823C47.0581 42.9893 49.1317 41.2925 51.6896 41.2925Z" stroke="black" stroke-width="0.94499" stroke-miterlimit="22.9256"/>
<path d="M65.3482 42.6385H72.4286M66.2286 48.1852H71.5482M68.8884 40.6333C71.8912 40.6333 74.3255 42.6252 74.3255 45.0823C74.3255 47.5394 71.8913 49.5312 68.8884 49.5312C65.8855 49.5312 63.4512 47.5393 63.4512 45.0823C63.4512 42.6252 65.8854 40.6333 68.8884 40.6333ZM68.8884 41.2925C71.4462 41.2925 73.5199 42.9893 73.5199 45.0823C73.5199 47.1754 71.4462 48.8721 68.8884 48.8721C66.3305 48.8721 64.2568 47.1754 64.2568 45.0823C64.2568 42.9893 66.3305 41.2925 68.8884 41.2925Z" stroke="black" stroke-width="0.94499" stroke-miterlimit="22.9256"/>
<path d="M54.7454 16.6653V22.5137M58.0539 16.6653V22.5137M51.4369 18.1274H61.3624M51.4369 20.3206H61.3624M48.1284 14.4722H65.7737V23.2448H48.1284V14.4722ZM51.4369 16.6653H61.3624V22.5137H51.4369V16.6653Z" stroke="black"/>
<path fill-rule="evenodd" clip-rule="evenodd" d="M42.8354 147.868H78.6306V169.597L58.0484 169.733L57.3772 170.047C57.3772 170.047 56.8179 170.36 56.9298 171.522H42.8355L42.8354 147.868Z" fill="url(#paint2_linear_813_2711)" stroke="black" stroke-width="0.94499" stroke-miterlimit="22.9256"/>
<path d="M42.8354 159.695H78.5187" stroke="black"/>
<path d="M60.7332 147.868V169.486" stroke="black"/>
<path d="M7.04053 147.868H42.8357V171.522H7.04053V147.868ZM7.04053 159.695H42.8357ZM24.9381 147.868V171.522Z" fill="url(#paint3_linear_813_2711)"/>
<path d="M7.04053 159.695H42.8357M24.9381 147.868V171.522M7.04053 147.868H42.8357V171.522H7.04053V147.868Z" stroke="black"/>
<path d="M7.04053 53.3521H42.8311V84.8573H7.04053V53.3521ZM7.04053 53.3521L42.8311 84.8573ZM42.8311 53.3521L7.04053 84.8573ZM24.9358 53.3521V84.8573ZM7.04053 69.1047H42.8311ZM7.04053 84.8573H42.8311V116.363H7.04053V84.8573ZM7.04053 84.8573L42.8311 116.363ZM42.8311 84.8573L7.04053 116.363ZM24.9358 84.8573V116.363ZM7.04053 100.61H42.8311ZM7.04053 116.363H42.8311V147.868H7.04053V116.363ZM7.04053 116.363L42.8311 147.868ZM42.8311 116.363L7.04053 147.868ZM24.9358 116.363V147.868ZM7.04053 132.115H42.8311Z" fill="url(#paint4_linear_813_2711)"/>
<path d="M7.04053 53.3521H42.8311M7.04053 53.3521V84.8573M7.04053 53.3521L42.8311 84.8573M42.8311 53.3521V84.8573M42.8311 53.3521L7.04053 84.8573M42.8311 84.8573H7.04053M42.8311 84.8573V116.363M42.8311 84.8573L7.04053 116.363M7.04053 84.8573V116.363M7.04053 84.8573L42.8311 116.363M24.9358 53.3521V84.8573V116.363V147.868M7.04053 69.1047H42.8311M42.8311 116.363H7.04053M42.8311 116.363V147.868M42.8311 116.363L7.04053 147.868M7.04053 116.363V147.868M7.04053 116.363L42.8311 147.868M7.04053 100.61H42.8311M42.8311 147.868H7.04053M7.04053 132.115H42.8311" stroke="black"/>
<path d="M42.8401 53.3521H78.6306V84.8573H42.8401V53.3521ZM42.8401 53.3521L78.6306 84.8573ZM78.6306 53.3521L42.8401 84.8573ZM60.7354 53.3521V84.8573ZM42.8401 69.1047H78.6306ZM42.8401 84.8573H78.6306V116.363H42.8401V84.8573ZM42.8401 84.8573L78.6306 116.363ZM78.6306 84.8573L42.8401 116.363ZM60.7354 84.8573V116.363ZM42.8401 100.61H78.6306ZM42.8401 116.363H78.6306V147.868H42.8401V116.363ZM42.8401 116.363L78.6306 147.868ZM78.6306 116.363L42.8401 147.868ZM60.7354 116.363V147.868ZM42.8401 132.115H78.6306Z" fill="url(#paint5_linear_813_2711)"/>
<path d="M42.8401 53.3521H78.6306M42.8401 53.3521V84.8573M42.8401 53.3521L78.6306 84.8573M78.6306 53.3521V84.8573M78.6306 53.3521L42.8401 84.8573M78.6306 84.8573H42.8401M78.6306 84.8573V116.363M78.6306 84.8573L42.8401 116.363M42.8401 84.8573V116.363M42.8401 84.8573L78.6306 116.363M60.7354 53.3521V84.8573V116.363V147.868M42.8401 69.1047H78.6306M78.6306 116.363H42.8401M78.6306 116.363V147.868M78.6306 116.363L42.8401 147.868M42.8401 116.363V147.868M42.8401 116.363L78.6306 147.868M42.8401 100.61H78.6306M78.6306 147.868H42.8401M42.8401 132.115H78.6306" stroke="black"/>
<defs>
<linearGradient id="paint0_linear_813_2711" x1="84" y1="90.5" x2="1" y2="90.5" gradientUnits="userSpaceOnUse">
<stop stop-color="#6C6B6C"/>
<stop offset="1" stop-color="#CFCFCF"/>
</linearGradient>
<linearGradient id="paint1_linear_813_2711" x1="5.91406" y1="92.9557" x2="79.8456" y2="92.9557" gradientUnits="userSpaceOnUse">
<stop stop-color="#737074"/>
<stop offset="1" stop-color="white"/>
</linearGradient>
<linearGradient id="paint2_linear_813_2711" x1="78.6306" y1="159.695" x2="42.8354" y2="159.695" gradientUnits="userSpaceOnUse">
<stop offset="0.1" stop-color="#6A696A"/>
<stop offset="1" stop-color="white"/>
</linearGradient>
<linearGradient id="paint3_linear_813_2711" x1="42.8357" y1="159.695" x2="7.04053" y2="159.695" gradientUnits="userSpaceOnUse">
<stop offset="0.1" stop-color="#6A696A"/>
<stop offset="1" stop-color="white"/>
</linearGradient>
<linearGradient id="paint4_linear_813_2711" x1="42.8311" y1="100.61" x2="7.04053" y2="100.61" gradientUnits="userSpaceOnUse">
<stop offset="0.2" stop-color="#6A696A"/>
<stop offset="1" stop-color="white"/>
</linearGradient>
<linearGradient id="paint5_linear_813_2711" x1="78.6306" y1="100.61" x2="42.8401" y2="100.61" gradientUnits="userSpaceOnUse">
<stop offset="0.2" stop-color="#6A696A"/>
<stop offset="1" stop-color="white"/>
</linearGradient>
</defs>
</svg>
